<?xml version="1.0" encoding="UTF-8" standalone="no"?>
<!-- Created with Inkscape (http://www.inkscape.org/) -->

<svg
   xmlns:dc="http://purl.org/dc/elements/1.1/"
   xmlns:cc="http://creativecommons.org/ns#"
   xmlns:rdf="http://www.w3.org/1999/02/22-rdf-syntax-ns#"
   xmlns:svg="http://www.w3.org/2000/svg"
   xmlns="http://www.w3.org/2000/svg"
   xmlns:sodipodi="http://sodipodi.sourceforge.net/DTD/sodipodi-0.dtd"
   xmlns:inkscape="http://www.inkscape.org/namespaces/inkscape"
   width="100%"
   height="1052.3622"
   id="svg2"
   version="1.1"
   inkscape:version="0.48.4 r9939"
   sodipodi:docname="mech.svg">
  <defs
     id="defs4" />
  <sodipodi:namedview
     id="base"
     pagecolor="#ffffff"
     bordercolor="#666666"
     borderopacity="1.0"
     inkscape:pageopacity="0.0"
     inkscape:pageshadow="2"
     inkscape:zoom="0.35355339"
     inkscape:cx="529.74489"
     inkscape:cy="-176.69564"
     inkscape:document-units="px"
     inkscape:current-layer="layer1"
     showgrid="false"
     inkscape:window-width="960"
     inkscape:window-height="1028"
     inkscape:window-x="960"
     inkscape:window-y="24"
     inkscape:window-maximized="0" />
  <metadata
     id="metadata7">
    <rdf:RDF>
      <cc:Work
         rdf:about="">
        <dc:format>image/svg+xml</dc:format>
        <dc:type
           rdf:resource="http://purl.org/dc/dcmitype/StillImage" />
        <dc:title></dc:title>
      </cc:Work>
    </rdf:RDF>
  </metadata>
  <g
     inkscape:label="Layer 1"
     inkscape:groupmode="layer"
     id="layer1">
    <path
       style="font-size:medium;font-style:normal;font-variant:normal;font-weight:normal;font-stretch:normal;text-indent:0;text-align:start;text-decoration:none;line-height:normal;letter-spacing:normal;word-spacing:normal;text-transform:none;direction:ltr;block-progression:tb;writing-mode:lr-tb;text-anchor:start;baseline-shift:baseline;color:#000000;fill:#000000;fill-opacity:1;stroke:none;stroke-width:20;marker:none;visibility:visible;display:inline;overflow:visible;enable-background:accumulate;font-family:Sans;-inkscape-font-specification:Sans"
       d="M 411.21875 78.5 C 223.83004 78.5 71.71875 230.6113 71.71875 418 L 71.71875 1296.2188 L 91.71875 1296.2188 L 91.71875 418 C 91.71875 416.62047 91.732606 415.25037 91.75 413.875 C 93.959063 239.20307 236.01837 98.5 411.21875 98.5 C 587.79866 98.5 730.75 241.4201 730.75 418 C 730.75 594.5799 587.79866 737.5 411.21875 737.5 C 367.07378 737.5 325.09343 728.57128 286.875 712.40625 C 249.7717 696.71288 216.25796 674.19497 187.875 646.4375 L 187.875 383.1875 C 192.08309 305.7818 229.0415 257.17628 266 226.625 C 284.47925 211.34936 302.94523 200.741 317.125 193.78125 C 324.21488 190.30138 330.22149 187.74337 334.65625 185.9375 C 336.87363 185.03457 338.69897 184.31368 340.125 183.75 C 340.95175 183.4232 341.74354 183.02899 342.40625 182.75 L 342.40625 182.78125 C 381.45383 169.10322 405.979 170.63926 421 179.375 C 436.021 188.11074 444.2866 205.38889 447.6875 229.84375 C 454.4893 278.75348 439.33823 351.37483 428.3125 406.125 L 447.90625 410.0625 C 458.8822 355.55947 475.19652 282.43717 467.5 227.09375 C 463.65174 199.42204 453.19691 174.95335 431.03125 162.0625 C 419.94842 155.61708 406.63866 152.39323 390.84375 152.625 C 375.04884 152.85677 356.78829 156.55859 335.8125 163.90625 L 334.9375 164.1875 L 334.6875 164.34375 C 334.60675 164.35927 333.70051 164.79292 332.78125 165.15625 C 331.42287 165.69319 329.48646 166.44464 327.125 167.40625 C 322.40207 169.32947 315.92327 172.10821 308.3125 175.84375 C 293.09096 183.31483 273.26581 194.67294 253.25 211.21875 C 213.21839 244.31037 172.43822 298.73155 167.90625 382.09375 L 167.875 382.375 L 167.875 382.65625 L 167.875 654.15625 L 168.21875 654.15625 L 168.21875 1307.5312 L 188.21875 1307.5312 L 188.21875 673.875 C 215.12183 697.3418 245.68809 716.69631 279.0625 730.8125 C 319.68855 747.99587 364.37156 757.5 411.21875 757.5 C 598.60746 757.5 750.75 605.3887 750.75 418 C 750.75 230.6113 598.60746 78.5 411.21875 78.5 z "
       id="path3806" />
  </g>
</svg>
