<?xml version="1.0" encoding="UTF-8" standalone="no"?>
<!-- Created with Inkscape (http://www.inkscape.org/) -->

<svg
   xmlns:dc="http://purl.org/dc/elements/1.1/"
   xmlns:cc="http://creativecommons.org/ns#"
   xmlns:rdf="http://www.w3.org/1999/02/22-rdf-syntax-ns#"
   xmlns:svg="http://www.w3.org/2000/svg"
   xmlns="http://www.w3.org/2000/svg"
   xmlns:sodipodi="http://sodipodi.sourceforge.net/DTD/sodipodi-0.dtd"
   xmlns:inkscape="http://www.inkscape.org/namespaces/inkscape"
   width="1381.8898"
   height="1169.2913"
   id="svg2"
   version="1.1"
   inkscape:version="0.48.4 r9939"
   sodipodi:docname="New document 1">
  <defs
     id="defs4">
    <clipPath
       id="clipPath3787"
       clipPathUnits="userSpaceOnUse">
      <path
         sodipodi:nodetypes="ccccccc"
         inkscape:connector-curvature="0"
         id="path3789"
         d="M 855.59922,1103.1653 1701.7773,1099.0101 1360.8698,143.35134 144.40746,363.17148 192.84241,2009.9596 221.61895,1812.6908 z"
         style="fill:none;stroke:#000000;stroke-width:0.9220798px;stroke-linecap:butt;stroke-linejoin:miter;stroke-opacity:1" />
    </clipPath>
  </defs>
  <sodipodi:namedview
     id="base"
     pagecolor="#ffffff"
     bordercolor="#666666"
     borderopacity="1.0"
     inkscape:pageopacity="0.0"
     inkscape:pageshadow="2"
     inkscape:zoom="0.49497475"
     inkscape:cx="1305.0033"
     inkscape:cy="795.44554"
     inkscape:document-units="px"
     inkscape:current-layer="layer1"
     showgrid="false"
     inkscape:window-width="2181"
     inkscape:window-height="1359"
     inkscape:window-x="0"
     inkscape:window-y="24"
     inkscape:window-maximized="0"
     units="m" />
  <metadata
     id="metadata7">
    <rdf:RDF>
      <cc:Work
         rdf:about="">
        <dc:format>image/svg+xml</dc:format>
        <dc:type
           rdf:resource="http://purl.org/dc/dcmitype/StillImage" />
        <dc:title></dc:title>
      </cc:Work>
    </rdf:RDF>
  </metadata>
  <g
     inkscape:label="Layer 1"
     inkscape:groupmode="layer"
     id="layer1"
     transform="translate(0,116.94131)">
    <g
       transform="translate(-35.851809,207.83973)"
       id="layer1-3"
       inkscape:label="Layer 1">
      <path
         sodipodi:nodetypes="cssssssssscc"
         style="fill:#5b5b5b"
         d="m 1417.1983,337.80249 c 0,0 -41.8086,-161.94289 -57.14,-196.91534 -37.0229,-84.45303 -39.5698,-108.913133 -128.4822,-219.692533 -20.663,-25.744857 -74.7033,-79.785177 -100.4482,-100.448207 -99.2727,-79.67701 -211.52248,-127.14005 -343.39528,-145.19909 -26.1846,-3.58581 -130.3126,-3.52676 -158.182,0.0897 -180.78293,23.4592 -333.75201,108.63677 -447.54259,249.204475 C 103.40232,21.944627 51.888833,148.77903 38.733983,277.60488 c -3.08323,30.1941 -3.12684,103.11528 -0.0791,132.15212 16.80411,160.09525 85.597387,303.14317 200.269347,416.43766 10.00872,9.88845 18.19763,19.17802 18.19763,20.64349 z"
         id="path3843"
         inkscape:connector-curvature="0" />
    </g>
  </g>
</svg>
